<?xml version="1.0" encoding="UTF-8" standalone="no"?>
<!-- Created with Inkscape (http://www.inkscape.org/) -->

<svg
   xmlns:dc="http://purl.org/dc/elements/1.1/"
   xmlns:cc="http://creativecommons.org/ns#"
   xmlns:rdf="http://www.w3.org/1999/02/22-rdf-syntax-ns#"
   xmlns:svg="http://www.w3.org/2000/svg"
   xmlns="http://www.w3.org/2000/svg"
   xmlns:sodipodi="http://sodipodi.sourceforge.net/DTD/sodipodi-0.dtd"
   xmlns:inkscape="http://www.inkscape.org/namespaces/inkscape"
   width="210mm"
   height="297mm"
   viewBox="0 0 210 297"
   version="1.1"
   id="svg8"
   inkscape:version="0.92.3 (2405546, 2018-03-11)"
   sodipodi:docname="logo.svg">
  <defs
     id="defs2" />
  <sodipodi:namedview
     id="base"
     pagecolor="#ffffff"
     bordercolor="#666666"
     borderopacity="1.0"
     inkscape:pageopacity="0.0"
     inkscape:pageshadow="2"
     inkscape:zoom="0.49497475"
     inkscape:cx="735.62339"
     inkscape:cy="762.03955"
     inkscape:document-units="mm"
     inkscape:current-layer="layer1"
     showgrid="false"
     inkscape:window-width="1600"
     inkscape:window-height="876"
     inkscape:window-x="0"
     inkscape:window-y="24"
     inkscape:window-maximized="1" />
  <metadata
     id="metadata5">
    <rdf:RDF>
      <cc:Work
         rdf:about="">
        <dc:format>image/svg+xml</dc:format>
        <dc:type
           rdf:resource="http://purl.org/dc/dcmitype/StillImage" />
        <dc:title></dc:title>
      </cc:Work>
    </rdf:RDF>
  </metadata>
  <g
     inkscape:label="Ebene 1"
     inkscape:groupmode="layer"
     id="layer1">
    <g
       id="g3775"
       transform="matrix(0.53606442,0,0,0.53606442,-126.55797,-32.209395)">
      <path
         style="fill:#39a0d3;stroke-width:0.26458332"
         d="m 325.05738,232.05703 0.0777,-1.91542 0.46802,-0.0893 0.46801,-0.0893 0.39543,0.94641 c 0.21749,0.52052 0.45177,0.9464 0.52062,0.9464 0.0689,0 0.29931,-0.41672 0.51212,-0.92604 0.40615,-0.97206 1.03938,-1.21708 1.31166,-0.50753 0.20758,0.54095 0.20758,2.59077 0,3.13172 -0.22429,0.58448 -0.63315,0.52311 -0.63315,-0.095 0,-0.78975 -0.41771,-0.86757 -0.74939,-0.13961 -0.3804,0.8349 -0.73591,0.83178 -0.94676,-0.008 -0.0913,-0.36379 -0.28281,-0.66145 -0.42556,-0.66145 -0.14275,0 -0.25954,0.29766 -0.25954,0.66146 v 0.66146 h -0.40847 -0.40846 z m 6.29545,1.56568 c 0,-0.50294 0.82155,-2.89739 1.12823,-3.28828 0.14271,-0.1819 0.41871,-0.33072 0.61333,-0.33072 h 0.35384 l 0.5398,1.74766 c 0.29689,0.96121 0.5398,1.85418 0.5398,1.98437 0,0.43674 -0.66301,0.24224 -0.99693,-0.29245 -0.18176,-0.29104 -0.44969,-0.52917 -0.5954,-0.52917 -0.14571,0 -0.46882,0.23813 -0.71802,0.52917 -0.52289,0.61069 -0.86465,0.68161 -0.86465,0.17942 z m 1.85208,-1.76692 c 0,-0.14552 -0.11906,-0.26458 -0.26458,-0.26458 -0.14552,0 -0.26458,0.11906 -0.26458,0.26458 0,0.14552 0.11906,0.26458 0.26458,0.26458 0.14552,0 0.26458,-0.11906 0.26458,-0.26458 z m 3.75872,0.2196 0.0777,-1.89706 0.33073,-0.10936 0.33073,-0.10936 v 1.19103 c 0,1.41819 0.19891,2.02807 0.66146,2.02807 0.18714,0 0.40879,0.17859 0.49255,0.39687 l 0.1523,0.39688 h -1.06162 -1.06162 z m 4.49792,-0.0212 0.0777,-1.91823 h 0.26458 0.26458 l 0.081,1.41771 0.081,1.41771 0.49604,0.12972 c 0.27283,0.0713 0.56008,0.29658 0.63834,0.50052 l 0.14229,0.37081 h -1.06163 -1.06162 l 0.0777,-1.91823 z m 5.07829,1.71574 c -0.89429,-0.59713 -1.14607,-2.23816 -0.48763,-3.17822 l 0.41188,-0.58803 h 0.73774 0.73773 l 0.43789,0.48385 0.43788,0.48385 v 0.97136 0.97135 l -0.52917,0.52917 c -0.5425,0.5425 -1.23038,0.67118 -1.74632,0.32668 z m 1.32114,-1.00977 c 0.26708,-0.69599 0.18105,-1.61639 -0.179,-1.9152 -0.42607,-0.35361 -0.85766,-0.0894 -1.09461,0.67007 l -0.18261,0.58532 0.28855,0.53916 c 0.34395,0.64268 0.94358,0.70463 1.16767,0.12065 z m 3.60018,-0.77211 v -1.98437 h 0.89365 0.89364 l 0.31274,0.37682 0.31273,0.37681 -0.1656,0.88271 c -0.0911,0.48549 -0.0416,1.20889 0.10999,1.60756 l 0.27559,0.72485 h -0.39688 c -0.21828,0 -0.51004,-0.29766 -0.64836,-0.66146 -0.13831,-0.3638 -0.37349,-0.66146 -0.52261,-0.66146 -0.14913,0 -0.27114,0.29766 -0.27114,0.66146 v 0.66146 h -0.39687 -0.39688 z m 1.32292,-0.92604 c 0,-0.14552 -0.11906,-0.26458 -0.26458,-0.26458 -0.14552,0 -0.26459,0.11906 -0.26459,0.26458 0,0.14552 0.11907,0.26458 0.26459,0.26458 0.14552,0 0.26458,-0.11906 0.26458,-0.26458 z m 3.98795,2.21328 c -0.60647,-0.77101 -0.67528,-1.31585 -0.29314,-2.32096 l 0.25522,-0.67129 0.67023,-0.16822 c 0.36862,-0.0925 0.87885,-0.0869 1.13383,0.0124 l 0.46362,0.18061 -0.82147,0.34817 c -1.30446,0.55288 -1.37046,2.22386 -0.0997,2.52385 0.33953,0.0802 0.66585,0.29127 0.72514,0.46916 l 0.10781,0.32343 h -0.79659 -0.7966 l -0.54837,-0.69714 z m 4.91331,-0.67025 c 0.22334,-0.75207 0.51492,-1.6537 0.64797,-2.00363 l 0.2419,-0.63624 0.45199,0.087 0.45199,0.087 0.58037,1.85044 c 0.6113,1.94908 0.49258,2.37371 -0.41103,1.4701 -0.68303,-0.68304 -0.98241,-0.68657 -1.40085,-0.0165 -0.18176,0.29104 -0.47401,0.52917 -0.64944,0.52917 h -0.31897 z m 1.3293,-0.92567 c -0.097,-0.097 -0.17639,-0.0176 -0.17639,0.17639 0,0.19403 0.0794,0.2734 0.17639,0.17639 0.097,-0.097 0.097,-0.25577 0,-0.35278 z m -10.76936,-15.79644 c -0.0771,-0.0771 -0.55293,-0.18497 -1.05745,-0.23976 -1.17612,-0.12771 -2.8369,-0.99355 -3.7466,-1.95328 -1.46375,-1.54424 -2.58711,-5.1086 -2.59265,-8.22632 -0.001,-0.61846 -0.10708,-1.12448 -0.23551,-1.12448 -0.12842,0 -0.73396,0.76813 -1.34562,1.70695 -1.37636,2.11252 -3.51701,4.31931 -4.40637,4.54253 -0.36746,0.0922 -0.94388,0.042 -1.28094,-0.11154 l -0.61283,-0.27923 -0.46972,-1.27571 c -0.25835,-0.70164 -0.55991,-1.37962 -0.67014,-1.50662 l -0.20042,-0.23092 -0.88033,1.00624 c -1.34227,1.53424 -2.07089,2.18496 -3.65845,3.26729 -1.81273,1.23585 -2.14064,1.35762 -4.07783,1.51433 -0.86035,0.0696 -1.63426,0.14279 -1.71979,0.16264 -0.16828,0.0391 -1.68085,-0.27318 -2.53676,-0.52366 l -0.52917,-0.15485 2.2263,-0.48226 c 2.53737,-0.54964 5.13602,-1.6837 6.70422,-2.92573 1.39311,-1.10337 2.76189,-3.23181 4.81985,-7.49485 0.91518,-1.89577 1.8463,-3.5982 2.06918,-3.78316 l 0.40522,-0.33631 0.1998,0.32329 c 0.1099,0.17781 0.28535,1.86054 0.38991,3.7394 l 0.19009,3.41612 0.3024,0.30239 0.30239,0.30239 0.45574,-0.2827 c 0.83706,-0.51925 2.2871,-2.68374 4.66752,-6.96725 1.29783,-2.33542 2.58146,-4.44692 2.85251,-4.69221 l 0.49281,-0.44599 0.43806,0.43806 0.43806,0.43806 -0.31532,3.38072 c -0.17342,1.85939 -0.31473,4.2909 -0.314,5.40336 l 10e-4,2.02265 0.52948,1.71425 0.52948,1.71425 1.14643,1.05674 c 0.63053,0.58121 1.61266,1.22124 2.1825,1.42228 l 1.03607,0.36554 2.24896,-0.0228 2.24895,-0.0228 2.23609,-0.58794 c 3.01356,-0.79237 6.66466,-2.17183 10.30416,-3.89312 1.65839,-0.78434 3.13766,-1.42607 3.28726,-1.42607 0.76875,0 -3.37,3.39234 -6.83169,5.59961 -1.01864,0.64952 -2.92364,1.7825 -4.23333,2.51774 l -2.38125,1.3368 -2.38125,0.59374 c -2.31196,0.57647 -5.94357,0.98597 -6.22734,0.7022 z"
         id="path3779"
         inkscape:connector-curvature="0" />
      <path
         style="fill:#e10e26;stroke-width:0.26458332"
         d="m 342.9945,226.58714 -1.45521,-0.15531 -0.0701,-7.73906 -0.0702,-7.73906 h 0.79271 0.7927 l 0.12941,0.59531 c 0.0712,0.32742 0.16274,0.89297 0.20348,1.25677 l 0.0741,0.66146 1.71979,0.13229 1.71979,0.13229 0.0711,6.18463 0.0711,6.18462 -0.30194,0.36381 -0.30193,0.36382 -0.95979,-0.0431 c -0.52789,-0.0237 -1.61464,-0.11302 -2.415,-0.19844 z m 7.20452,-5.51312 0.0715,-5.49011 0.52916,0.0819 c 0.29105,0.045 1.42214,0.12802 2.51355,0.18445 1.0914,0.0564 2.07367,0.10889 2.18281,0.11659 0.10914,0.008 0.19844,2.27912 0.19844,5.04762 v 5.03363 l -0.67869,0.25804 c -0.37327,0.14192 -1.62584,0.25803 -2.78349,0.25803 h -2.10481 z m -16.47793,1.37041 -2.68481,-3.85511 0.12528,-0.47905 c 0.0689,-0.26348 1.15761,-1.90957 2.41935,-3.65798 l 2.29407,-3.17894 0.885,-0.10331 c 0.48675,-0.0568 1.01708,-0.0593 1.17851,-0.005 l 0.29351,0.0978 v 7.51857 7.51858 h -0.91305 -0.91305 z m -4.08805,3.35052 -1.32292,-0.15687 -0.0757,-2.57969 -0.0757,-2.57968 0.34031,0.006 c 0.43648,0.008 3.71651,4.95985 3.5084,5.29658 -0.1641,0.26551 -0.24439,0.26597 -2.37434,0.0134 z m 35.33512,-0.28097 c -0.12655,-0.0782 -0.27059,-0.499 -0.3201,-0.93509 l -0.09,-0.79289 h -2.64584 c -1.4552,0 -2.79466,-0.0963 -2.97656,-0.21406 l -0.33073,-0.21405 0.004,-1.37345 c 0.002,-0.75539 0.11664,-1.55204 0.25424,-1.77032 l 0.25018,-0.39687 2.19316,-0.13229 2.19316,-0.1323 v -1.05833 -1.05833 l -2.19344,-0.077 -2.19343,-0.077 -0.28327,-0.6217 -0.28327,-0.62171 0.26198,-0.46814 0.26199,-0.46814 2.13513,-0.72441 c 1.17433,-0.39842 2.96161,-1.10535 3.97175,-1.57095 l 1.83661,-0.84655 2.45957,0.26267 2.45957,0.26268 0.34747,0.47519 0.34747,0.4752 v 5.35448 5.35449 l -0.41578,0.41578 c -0.22867,0.22868 -0.43703,0.42275 -0.46302,0.43127 -0.45481,0.1492 -6.61656,0.62341 -6.78087,0.52186 z m -43.51465,-0.54308 c -0.42416,-0.13003 -0.86882,-0.39029 -0.98814,-0.57837 -0.11932,-0.18807 -0.21876,-2.80831 -0.22099,-5.82275 l -0.004,-5.48079 0.56627,-0.30306 0.56627,-0.30305 1.29617,0.17194 c 0.7129,0.0946 1.59145,0.28421 1.95235,0.42142 l 0.65617,0.24948 -0.0712,5.8916 -0.0712,5.89159 -1.45521,0.0492 c -0.80036,0.0271 -1.80224,-0.0572 -2.2264,-0.18721 z m 6.72432,-10.14307 v -1.72623 l 0.28811,-0.17806 c 0.15846,-0.0979 0.87283,-0.33231 1.5875,-0.52083 l 1.29939,-0.34277 v 0.31405 c 0,0.385 -2.55332,3.96921 -2.91496,4.09187 l -0.26004,0.0882 z m 40.21519,-14.00274 c -8.1e-4,-1.3415 -0.12637,-2.88883 -0.27902,-3.43851 -0.36824,-1.32606 -1.63159,-2.72438 -2.84158,-3.14519 l -0.97897,-0.34047 -2.38125,0.0266 c -2.00807,0.0224 -4.54585,0.42708 -6.54843,1.04418 l -0.46302,0.14269 v -0.27247 c 0,-0.41296 3.56527,-2.03686 5.95312,-2.71152 l 2.11667,-0.59803 2.91041,-0.0128 2.91042,-0.0128 1.32253,0.66146 1.32254,0.66146 0.61911,0.92604 0.61911,0.92604 -0.10455,1.49515 -0.10455,1.49515 -0.71274,1.37379 c -0.80278,1.54732 -2.52645,3.87004 -3.02759,4.07982 l -0.33073,0.13844 -0.002,-2.43909 z"
         id="path3777"
         inkscape:connector-curvature="0" />
    </g>
  </g>
</svg>
